# xmcd CD database file
# Generated: Sat Aug 25 00:50:54 2001 by KSCD
# 
# Track frame offsets:
#       150
#       14895
#       28795
#       46010
#       61480
#       72062
#       86037
#       102405
#       120837
#       131232
#       148072
#       168912
#
# Disc length: 2493 seconds
#
# Revision: 2
# Processed by: cddbd v1.4b42PL1 Copyright (c) Steve Scherf et al.
# Submitted via: Kscd 1.3.0
#
DISCID=a709bb0c
DTITLE=JL Stiles - Solo Sessions
DYEAR=1900
DGENRE=
TTITLE0=Nothin' Here For Me
TTITLE1=Slow Rider
TTITLE2=Make Your Own Day
TTITLE3=Renewal Song
TTITLE4=Never To Grow Old
TTITLE5=I Ain't Gonna Wait
TTITLE6=Fellow Grove
TTITLE7=Sweet Olive Tree
TTITLE8=Fall By The Wayside
TTITLE9=You Will Never Know
TTITLE10=You Missed It Man
TTITLE11=Trouble I Had All My Days
EXTD=
EXTT0=
EXTT1=
EXTT2=
EXTT3=
EXTT4=
EXTT5=
EXTT6=
EXTT7=
EXTT8=
EXTT9=
EXTT10=
EXTT11=
PLAYORDER=
